<?xml version="1.0" standalone="no"?><!DOCTYPE svg PUBLIC "-//W3C//DTD SVG 1.1//EN" "http://www.w3.org/Graphics/SVG/1.1/DTD/svg11.dtd"><svg t="1660717892395" class="icon" viewBox="0 0 1024 1024" version="1.1" xmlns="http://www.w3.org/2000/svg" p-id="22407" xmlns:xlink="http://www.w3.org/1999/xlink" width="200" height="200"><defs><style type="text/css"></style></defs><path d="M800 128h-160c0-70.6-57.4-128-128-128s-128 57.4-128 128H224C171 128 128 171 128 224v704c0 53 43 96 96 96h576c53 0 96-43 96-96V224c0-53-43-96-96-96zM512 80c26.6 0 48 21.4 48 48s-21.4 48-48 48-48-21.4-48-48 21.4-48 48-48z m288 836c0 6.6-5.4 12-12 12H236c-6.6 0-12-5.4-12-12V236c0-6.6 5.4-12 12-12h84v72c0 13.2 10.8 24 24 24h336c13.2 0 24-10.8 24-24v-72h84c6.6 0 12 5.4 12 12z" p-id="22408"></path></svg>