<?xml version="1.0" standalone="no"?><!DOCTYPE svg PUBLIC "-//W3C//DTD SVG 1.1//EN" "http://www.w3.org/Graphics/SVG/1.1/DTD/svg11.dtd"><svg t="1660718050496" class="icon" viewBox="0 0 1024 1024" version="1.1" xmlns="http://www.w3.org/2000/svg" p-id="1010" xmlns:xlink="http://www.w3.org/1999/xlink" width="200" height="200"><defs><style type="text/css"></style></defs><path d="M213.333333 405.333333L320 597.333333h-213.333333L213.333333 405.333333M128 170.666667h170.666667v170.666666H128V170.666667m85.333333 682.666666a85.333333 85.333333 0 0 0 85.333334-85.333333 85.333333 85.333333 0 0 0-85.333334-85.333333 85.333333 85.333333 0 0 0-85.333333 85.333333 85.333333 85.333333 0 0 0 85.333333 85.333333M384 213.333333v85.333334h512V213.333333H384m0 597.333334h512v-85.333334H384v85.333334m0-256h512v-85.333334H384v85.333334z" fill="" p-id="1011"></path></svg>